<svg width="43" height="42" viewBox="0 0 43 42" fill="none" xmlns="http://www.w3.org/2000/svg">
<path d="M7.47536 5.23915C7.57726 3.43649 8.00787 2.6526 9.24272 2.0231C10.5714 1.34557 12.667 1.66088 15.1329 2.90957C16.195 3.44766 16.3032 3.45861 18.1645 3.21996C20.6387 2.90264 23.8239 2.90376 26.1074 3.22287C27.8343 3.46419 27.9477 3.45214 29.0124 2.91293C32.5126 1.14044 35.276 1.25641 36.2767 3.21772C36.7761 4.19671 36.8689 6.73699 36.4816 8.83216C36.2669 9.99371 36.2896 10.1387 36.8069 10.901C40.4464 16.2642 37.824 24.9578 31.5876 28.2021C31.1103 28.4504 30.7082 28.6041 30.3804 28.7292C29.374 29.1135 29.0684 29.2303 29.4384 30.9992C29.6165 31.85 29.8311 33.9654 29.9154 35.7003C30.0679 38.8363 30.0656 38.8582 29.5156 39.498C28.7669 40.3683 27.6879 40.383 26.9567 39.5329C26.4798 38.9785 26.4333 38.7167 26.4333 36.5776C26.4333 33.4166 26.0868 31.3156 25.2681 29.5152C24.2946 27.3726 25.0163 26.5737 27.2427 26.0949C30.3372 25.4292 32.7541 23.5195 34.1013 20.6756C35.3821 17.9722 35.5751 14.2363 33.2595 11.9642C32.601 11.1816 32.5551 10.4728 33.0254 8.33541C33.2011 7.53655 33.3484 6.50594 33.3528 6.04494C33.3594 5.3169 33.2931 5.20697 32.846 5.20697C32.563 5.20697 31.4819 5.61858 30.4438 6.12159L28.7869 6.92466C28.6362 6.99765 28.4677 7.02572 28.3014 7.00665C24.0883 6.52305 20.085 6.51558 15.8512 7.00854C15.6844 7.02796 15.5151 6.99989 15.3639 6.92653L13.7079 6.12293C12.6697 5.61902 11.5886 5.20697 11.3057 5.20697C10.6516 5.20697 10.6418 5.68986 11.238 8.55886C11.6022 10.3111 11.8472 10.7015 10.7944 12.1025C9.21635 14.2026 8.82216 16.8104 9.66841 19.5503C10.735 23.003 13.3468 25.3356 17.0187 26.1138C19.2322 26.583 19.8108 27.1952 18.9655 29.7334C18.3002 31.7308 17.8795 32.2457 16.9125 32.2457C15.6115 32.2457 14.7966 31.1187 15.2451 29.9394C15.4426 29.4196 15.3839 29.3641 14.1651 28.9196C10.4447 27.5632 7.59915 24.5229 6.29817 20.514C5.2926 17.4157 5.73505 13.3829 7.34822 10.9454C7.89748 10.1155 7.90598 10.0451 7.64966 8.4563C7.50464 7.55688 7.4262 6.1093 7.47536 5.23915Z" fill="url(#paint0_linear_2015_107)"/>
<path d="M6.17624 27.9044C5.64013 27.1003 4.5536 26.8829 3.74943 27.4191C2.94527 27.9552 2.72795 29.0417 3.26406 29.8459C3.65986 30.4396 4.13336 30.9274 4.53545 31.3293C4.60959 31.4035 4.68162 31.4751 4.75195 31.5449C5.08877 31.8795 5.38616 32.1749 5.68485 32.5256C6.3455 33.3011 7.00457 34.3455 7.37914 36.2183C7.54598 37.0525 8.14562 37.5019 8.47787 37.6983C8.8382 37.9111 9.23189 38.0366 9.55587 38.1183C10.2186 38.2854 11.0231 38.3722 11.7867 38.4228C12.6248 38.4784 13.533 38.4965 14.3452 38.5014C14.3458 39.4672 15.129 40.2501 16.0951 40.2501C17.0617 40.2501 17.8451 39.4667 17.8451 38.5001V36.7501C17.8451 35.7836 17.0617 35.0001 16.0951 35.0001C15.9302 35.0001 15.7517 35.0007 15.5626 35.0014C14.5356 35.0045 13.197 35.0085 12.018 34.9305C11.4495 34.8929 10.9821 34.8395 10.6394 34.7742C10.1116 32.7024 9.25902 31.3239 8.34921 30.2559C7.94703 29.7839 7.53056 29.3709 7.19181 29.0349C7.1284 28.9721 7.06771 28.9119 7.01032 28.8545C6.61946 28.4637 6.36379 28.1858 6.17624 27.9044Z" fill="url(#paint1_linear_2015_107)"/>
<defs>
<linearGradient id="paint0_linear_2015_107" x1="22.1137" y1="1.66071" x2="22.1137" y2="40.1607" gradientUnits="userSpaceOnUse">
<stop stop-color="#FDFDFD"/>
<stop offset="1" stop-color="white" stop-opacity="0.65"/>
</linearGradient>
<linearGradient id="paint1_linear_2015_107" x1="10.4076" y1="27.125" x2="10.4076" y2="40.2501" gradientUnits="userSpaceOnUse">
<stop stop-color="#FDFDFD"/>
<stop offset="1" stop-color="white" stop-opacity="0.65"/>
</linearGradient>
</defs>
</svg>
