<svg width="43" height="42" viewBox="0 0 43 42" fill="none" xmlns="http://www.w3.org/2000/svg">
<path d="M31.9526 8.77332C30.6641 8.77332 29.6976 9.73975 29.6976 11.0283C29.6976 12.3169 30.6641 13.2833 31.9526 13.2833C33.2412 13.2833 34.2077 12.3169 34.2077 11.0283C34.2077 9.73975 33.2412 8.77332 31.9526 8.77332Z" fill="url(#paint0_linear_2015_115)"/>
<path d="M21.805 11.6726C16.4896 11.6726 12.3018 16.0216 12.3018 21.1759C12.3018 26.3302 16.6507 30.6792 21.805 30.6792C26.9594 30.6792 31.3083 26.3302 31.3083 21.1759C31.3083 16.0216 27.1204 11.6726 21.805 11.6726ZM21.805 27.2966C18.4225 27.2966 15.6843 24.5584 15.6843 21.1759C15.6843 17.7934 18.4225 15.0551 21.805 15.0551C25.1876 15.0551 27.9258 17.7934 27.9258 21.1759C27.9258 24.5584 25.1876 27.2966 21.805 27.2966Z" fill="url(#paint1_linear_2015_115)"/>
<path d="M29.5366 1.68622H14.2347C7.63076 1.68622 2.47644 6.84054 2.47644 13.2834V28.5853C2.47644 35.0282 7.63076 40.1825 14.0737 40.1825H29.3755C35.8184 40.1825 40.9728 35.0282 40.9728 28.5853V13.2834C41.1338 6.84054 35.9795 1.68622 29.5366 1.68622ZM37.4292 28.7464C37.4292 33.0954 33.8856 36.8 29.3755 36.8H14.0737C9.7247 36.8 6.02004 33.2564 6.02004 28.7464V13.4445C6.02004 9.09555 9.56363 5.39089 14.0737 5.39089H29.3755C33.7245 5.39089 37.4292 8.93448 37.4292 13.4445V28.7464Z" fill="url(#paint2_linear_2015_115)"/>
<defs>
<linearGradient id="paint0_linear_2015_115" x1="31.9526" y1="8.77332" x2="31.9526" y2="13.2833" gradientUnits="userSpaceOnUse">
<stop stop-color="#FDFDFD"/>
<stop offset="1" stop-color="white" stop-opacity="0.65"/>
</linearGradient>
<linearGradient id="paint1_linear_2015_115" x1="21.805" y1="11.6726" x2="21.805" y2="30.6792" gradientUnits="userSpaceOnUse">
<stop stop-color="#FDFDFD"/>
<stop offset="1" stop-color="white" stop-opacity="0.65"/>
</linearGradient>
<linearGradient id="paint2_linear_2015_115" x1="21.7264" y1="1.68622" x2="21.7264" y2="40.1825" gradientUnits="userSpaceOnUse">
<stop stop-color="#FDFDFD"/>
<stop offset="1" stop-color="white" stop-opacity="0.65"/>
</linearGradient>
</defs>
</svg>
